<?xml version="1.0" encoding="UTF-8"?>
<svg id="Layer_1" xmlns="http://www.w3.org/2000/svg" version="1.1" viewBox="0 0 18.88 19.82">
  <!-- Generator: Adobe Illustrator 30.6.0, SVG Export Plug-In . SVG Version: 2.1.4 Build 109)  -->
  <defs>
    <style>
      .st0 {
        fill: #b9df7d;
      }
    </style>
  </defs>
  <path class="st0" d="M9.44,2.85l.33,1.66c.14.72.78,1.25,1.52,1.25.39,0,.76-.15,1.05-.41l1.24-1.15-.71,1.54c-.22.48-.19,1.04.1,1.48.29.45.77.72,1.3.72.06,0,.12,0,.19-.01l1.68-.2-1.48.83c-.49.27-.79.79-.79,1.35s.3,1.08.79,1.35l1.48.83-1.68-.2c-.06,0-.13-.01-.19-.01-.53,0-1.02.27-1.3.72-.29.45-.32,1-.1,1.48l.71,1.54-1.24-1.15c-.29-.27-.66-.41-1.05-.41-.74,0-1.38.53-1.52,1.25l-.33,1.66-.33-1.66c-.14-.72-.78-1.25-1.52-1.25-.39,0-.76.15-1.05.41l-1.24,1.15.71-1.54c.22-.48.19-1.04-.1-1.48-.29-.45-.77-.72-1.3-.72-.06,0-.12,0-.19.01l-1.68.2,1.48-.83c.49-.27.79-.79.79-1.35s-.3-1.08-.79-1.35l-1.48-.83,1.68.2c.06,0,.13.01.19.01.53,0,1.02-.27,1.3-.72.29-.45.32-1,.1-1.48l-.71-1.54,1.24,1.15c.29.27.66.41,1.05.41.74,0,1.38-.53,1.52-1.25l.33-1.66M9.44,0c-.11,0-.21.07-.24.2l-.83,4.18c-.08.4-.43.65-.79.65-.19,0-.38-.07-.54-.21L3.92,1.91c-.05-.05-.11-.07-.16-.07-.16,0-.3.17-.22.35l1.79,3.87c.25.54-.15,1.14-.72,1.14-.03,0-.07,0-.1,0L.27,6.68s-.02,0-.03,0c-.24,0-.34.33-.11.45l3.72,2.08c.55.31.55,1.09,0,1.4L.12,12.69c-.22.12-.13.45.11.45.01,0,.02,0,.03,0l4.23-.5s.07,0,.1,0c.57,0,.97.6.72,1.14l-1.79,3.87c-.08.18.06.35.22.35.06,0,.11-.02.16-.07l3.12-2.89c.16-.15.35-.21.54-.21.36,0,.71.24.79.65l.83,4.18c.03.13.13.2.24.2s.21-.07.24-.2l.83-4.18c.08-.4.43-.65.79-.65.19,0,.38.07.54.21l3.12,2.89c.05.05.11.07.16.07.16,0,.3-.17.22-.35l-1.79-3.87c-.25-.54.15-1.14.72-1.14.03,0,.07,0,.1,0l4.23.5s.02,0,.03,0c.24,0,.34-.33.11-.45l-3.72-2.08c-.55-.31-.55-1.09,0-1.4l3.72-2.08c.22-.12.13-.45-.11-.45-.01,0-.02,0-.03,0l-4.23.5s-.07,0-.1,0c-.57,0-.97-.6-.72-1.14l1.79-3.87c.08-.18-.06-.35-.22-.35-.06,0-.11.02-.16.07l-3.12,2.89c-.16.15-.35.21-.54.21-.36,0-.71-.24-.79-.65L9.68.2c-.03-.13-.13-.2-.24-.2h0Z"/>
</svg>