<?xml version="1.0" encoding="UTF-8"?>
<svg id="Layer_1" xmlns="http://www.w3.org/2000/svg" version="1.1" viewBox="0 0 24 24">
  <!-- Generator: Adobe Illustrator 30.6.0, SVG Export Plug-In . SVG Version: 2.1.4 Build 109)  -->
  <defs>
    <style>
      .st0 {
        fill: #f2a58c;
      }
    </style>
  </defs>
  <path class="st0" d="M12,2.76c1.11,0,2.58.43,3.08,1.65.37.9.46,2.94-3.08,6.53-3.54-3.59-3.45-5.63-3.08-6.53.5-1.22,1.97-1.65,3.08-1.65M18.67,8.74c1.77,0,2.58,1.69,2.58,3.26,0,1.57-.81,3.26-2.58,3.26-1.06,0-2.88-.57-5.6-3.26,2.72-2.69,4.55-3.26,5.6-3.26M5.34,8.74c1.06,0,2.88.57,5.6,3.26-2.72,2.69-4.55,3.26-5.6,3.26-1.77,0-2.58-1.69-2.58-3.26s.81-3.26,2.58-3.26M12,13.06c3.54,3.59,3.45,5.63,3.08,6.53-.5,1.22-1.97,1.65-3.08,1.65s-2.58-.43-3.08-1.65c-.37-.9-.46-2.94,3.08-6.53M12,2.01c-3.4,0-6.8,3.2-.41,9.58-2.62-2.62-4.71-3.6-6.26-3.6-4.44,0-4.44,8.01,0,8.01,1.55,0,3.63-.97,6.26-3.6-6.39,6.39-2.99,9.58.41,9.58s6.8-3.2.41-9.58c2.62,2.62,4.71,3.6,6.26,3.6,4.44,0,4.44-8.01,0-8.01-1.55,0-3.63.97-6.26,3.6,6.39-6.39,2.99-9.58-.41-9.58h0Z"/>
</svg>