<?xml version="1.0" encoding="UTF-8"?>
<svg id="Layer_1" xmlns="http://www.w3.org/2000/svg" version="1.1" viewBox="0 0 24 24">
  <!-- Generator: Adobe Illustrator 30.6.0, SVG Export Plug-In . SVG Version: 2.1.4 Build 109)  -->
  <defs>
    <style>
      .st0 {
        fill: #b7a6e8;
      }
    </style>
  </defs>
  <path class="st0" d="M11.99,3.91c.13.16.37.57.62,1.51l.4,1.46.92-1.2c.6-.78.98-1.07,1.16-1.17.06.2.12.66,0,1.63l-.19,1.5,1.31-.75c.81-.47,1.27-.59,1.51-.62-.03.21-.15.66-.62,1.49l-.75,1.31,1.5-.19c.37-.05.7-.07.98-.07.34,0,.55.04.66.07-.1.18-.39.56-1.18,1.17l-1.2.92,1.46.39c.95.26,1.36.5,1.53.63-.16.13-.57.36-1.5.62l-1.45.4,1.19.92c.77.59,1.05.97,1.15,1.15-.12.03-.32.07-.67.07-.28,0-.61-.02-.97-.07l-1.5-.19.75,1.31c.48.85.6,1.3.63,1.51-.2-.03-.66-.14-1.5-.62l-1.31-.75.19,1.49c.12.96.06,1.42,0,1.62-.18-.1-.57-.39-1.17-1.18l-.93-1.21-.39,1.47c-.26.98-.5,1.39-.64,1.56-.13-.17-.37-.57-.62-1.52l-.39-1.46-.92,1.19c-.6.77-.97,1.05-1.15,1.15-.06-.2-.12-.67,0-1.65l.19-1.5-1.31.75c-.82.47-1.27.59-1.51.62.03-.21.15-.67.63-1.51l.75-1.31-1.5.19c-.36.05-.69.07-.96.07-.34,0-.55-.04-.67-.07.1-.18.38-.55,1.14-1.14l1.19-.92-1.45-.4c-.93-.25-1.33-.49-1.5-.62.17-.13.58-.37,1.53-.63l1.46-.39-1.2-.92c-.78-.6-1.06-.98-1.17-1.16.12-.03.32-.07.67-.07.28,0,.61.02.97.07l1.5.19-.75-1.31c-.48-.85-.6-1.3-.63-1.51.2.03.67.14,1.52.64l1.31.75-.19-1.5c-.13-.98-.06-1.45,0-1.65.18.1.55.38,1.14,1.13l.92,1.18.4-1.44c.25-.91.48-1.3.61-1.46M11.99,3.08c-.51,0-.97.79-1.33,2.09-.73-.94-1.38-1.48-1.84-1.48-.07,0-.14.01-.2.04-.48.2-.6,1.13-.42,2.51-.83-.48-1.52-.74-1.99-.74-.21,0-.38.05-.49.17-.36.36-.12,1.27.57,2.47-.39-.05-.75-.08-1.07-.08-.78,0-1.29.16-1.43.5-.2.48.38,1.22,1.48,2.07-1.35.36-2.16.83-2.16,1.35s.8.98,2.13,1.34c-1.08.84-1.64,1.58-1.45,2.05.14.34.65.5,1.43.5.31,0,.67-.03,1.06-.08-.69,1.21-.94,2.12-.57,2.48.11.11.28.17.49.17.47,0,1.15-.26,1.98-.74-.18,1.38-.06,2.31.42,2.51.06.03.13.04.2.04.47,0,1.13-.55,1.86-1.5.36,1.34.83,2.15,1.35,2.15s1-.83,1.36-2.2c.74.97,1.41,1.53,1.89,1.53.07,0,.14-.01.2-.04.47-.2.6-1.12.42-2.49.82.47,1.5.73,1.96.73.21,0,.38-.05.49-.17.36-.36.12-1.27-.57-2.47.39.05.75.08,1.07.08.78,0,1.29-.16,1.43-.5.2-.47-.37-1.22-1.46-2.06,1.33-.36,2.13-.83,2.13-1.34s-.82-.99-2.17-1.35c1.11-.85,1.69-1.6,1.49-2.08-.14-.34-.65-.5-1.43-.5-.32,0-.68.03-1.07.08.68-1.2.92-2.1.56-2.46-.11-.11-.28-.17-.49-.17-.47,0-1.15.26-1.97.73.17-1.37.05-2.29-.42-2.49-.06-.03-.13-.04-.2-.04-.47,0-1.13.56-1.87,1.52-.36-1.33-.83-2.14-1.35-2.14h0Z"/>
</svg>