<?xml version="1.0" encoding="UTF-8"?>
<svg id="Layer_1" xmlns="http://www.w3.org/2000/svg" version="1.1" viewBox="0 0 98.97 50.02">
  <!-- Generator: Adobe Illustrator 30.6.0, SVG Export Plug-In . SVG Version: 2.1.4 Build 109)  -->
  <defs>
    <style>
      .st0 {
        fill: #b9df7d;
      }

      .st1 {
        fill: #b7a6e8;
      }

      .st2 {
        fill: #6247b8;
      }

      .st3 {
        fill: #9fd6e8;
      }

      .st4 {
        fill: #f2a58c;
      }

      .st5 {
        fill: #4d7519;
      }

      .st6 {
        fill: #1d7391;
      }

      .st7 {
        fill: #b0472a;
      }
    </style>
  </defs>
  <rect class="st2" x="5.25" width="4.63" height="4.63"/>
  <rect class="st7" x="5.25" y="5.2" width="4.63" height="4.63"/>
  <rect class="st6" x="5.25" y="10.17" width="4.63" height="4.63"/>
  <rect class="st5" x="5.25" y="15.37" width="4.63" height="4.63"/>
  <rect class="st1" width="4.63" height="4.63"/>
  <rect class="st4" y="5.2" width="4.63" height="4.63"/>
  <rect class="st3" y="10.17" width="4.63" height="4.63"/>
  <rect class="st0" y="15.37" width="4.63" height="4.63"/>
  <path class="st1" d="M90.04,31.95c.13.16.37.57.62,1.51l.4,1.46.92-1.2c.6-.78.98-1.07,1.16-1.17.06.2.12.66,0,1.63l-.19,1.5,1.31-.75c.81-.47,1.27-.59,1.51-.62-.03.21-.15.66-.62,1.49l-.75,1.31,1.5-.19c.37-.05.7-.07.98-.07.34,0,.55.04.66.07-.1.18-.39.56-1.18,1.17l-1.2.92,1.46.39c.95.26,1.36.5,1.53.63-.16.13-.57.36-1.5.62l-1.45.4,1.19.92c.77.59,1.05.97,1.15,1.15-.12.03-.32.07-.67.07-.28,0-.61-.02-.97-.07l-1.5-.19.75,1.31c.48.85.6,1.3.63,1.51-.2-.03-.66-.14-1.5-.62l-1.31-.75.19,1.49c.12.96.06,1.42,0,1.62-.18-.1-.57-.39-1.17-1.18l-.93-1.21-.39,1.47c-.26.98-.51,1.39-.64,1.56-.13-.17-.37-.57-.62-1.52l-.39-1.46-.92,1.19c-.6.77-.97,1.05-1.15,1.15-.06-.2-.12-.67,0-1.65l.19-1.5-1.31.75c-.82.47-1.27.59-1.51.62.03-.21.15-.67.63-1.51l.75-1.31-1.5.19c-.36.05-.69.07-.96.07-.34,0-.55-.04-.67-.07.1-.18.38-.55,1.14-1.14l1.19-.92-1.45-.4c-.93-.25-1.33-.49-1.5-.62.17-.13.58-.37,1.53-.63l1.46-.39-1.2-.92c-.78-.6-1.06-.98-1.17-1.16.12-.03.32-.07.67-.07.28,0,.61.02.97.07l1.5.19-.75-1.31c-.48-.85-.6-1.3-.63-1.51.2.03.67.14,1.52.64l1.31.75-.19-1.5c-.13-.98-.06-1.45,0-1.65.18.1.55.38,1.14,1.13l.92,1.18.4-1.44c.25-.91.48-1.3.61-1.46M90.04,31.11c-.51,0-.97.79-1.33,2.09-.73-.94-1.38-1.48-1.85-1.48-.07,0-.14.01-.2.04-.48.2-.6,1.13-.42,2.51-.83-.48-1.52-.74-1.99-.74-.21,0-.38.05-.49.17-.36.36-.12,1.27.57,2.47-.39-.05-.75-.08-1.07-.08-.78,0-1.29.16-1.43.5-.2.48.38,1.22,1.48,2.07-1.35.36-2.16.83-2.16,1.35s.8.98,2.13,1.34c-1.08.84-1.64,1.58-1.45,2.05.14.34.65.5,1.43.5.31,0,.67-.03,1.06-.08-.69,1.21-.94,2.12-.57,2.48.11.11.28.17.49.17.47,0,1.15-.26,1.98-.74-.18,1.38-.06,2.31.42,2.51.06.03.13.04.2.04.47,0,1.13-.55,1.86-1.5.36,1.34.83,2.15,1.35,2.15s1-.83,1.36-2.2c.74.97,1.41,1.53,1.89,1.53.07,0,.14-.01.2-.04.47-.2.6-1.12.42-2.49.82.47,1.5.73,1.96.73.21,0,.38-.05.49-.17.36-.36.12-1.27-.57-2.47.39.05.75.08,1.07.08.78,0,1.29-.16,1.43-.5.2-.47-.37-1.22-1.46-2.06,1.33-.36,2.13-.83,2.13-1.34s-.82-.99-2.17-1.35c1.11-.85,1.69-1.6,1.49-2.08-.14-.34-.65-.5-1.43-.5-.32,0-.68.03-1.07.08.68-1.2.92-2.1.56-2.46-.11-.11-.28-.17-.49-.17-.47,0-1.15.26-1.97.73.17-1.37.05-2.29-.42-2.49-.06-.03-.13-.04-.2-.04-.47,0-1.13.56-1.87,1.52-.36-1.33-.83-2.14-1.35-2.14h0Z"/>
  <path class="st4" d="M68.11,30.79c1.11,0,2.58.43,3.08,1.65.37.9.46,2.94-3.08,6.53-3.54-3.59-3.45-5.63-3.08-6.53.5-1.22,1.97-1.65,3.08-1.65M74.77,36.78c1.77,0,2.58,1.69,2.58,3.26,0,1.57-.81,3.26-2.58,3.26-1.06,0-2.88-.57-5.6-3.26,2.72-2.69,4.55-3.26,5.6-3.26M61.44,36.78c1.06,0,2.88.57,5.6,3.26-2.72,2.69-4.55,3.26-5.6,3.26-1.77,0-2.58-1.69-2.58-3.26s.81-3.26,2.58-3.26M68.11,41.09c3.54,3.59,3.45,5.63,3.08,6.53-.5,1.22-1.97,1.65-3.08,1.65s-2.58-.43-3.08-1.65c-.37-.9-.46-2.94,3.08-6.53M68.11,30.04c-3.4,0-6.8,3.19-.41,9.58-2.62-2.62-4.71-3.6-6.26-3.6-4.44,0-4.44,8.01,0,8.01,1.55,0,3.63-.97,6.26-3.6-6.39,6.39-2.99,9.58.41,9.58s6.8-3.19.41-9.58c2.62,2.62,4.71,3.6,6.26,3.6,4.44,0,4.44-8.01,0-8.01-1.55,0-3.63.97-6.26,3.6,6.39-6.39,2.99-9.58-.41-9.58h0Z"/>
  <path class="st3" d="M23.98,1.29c4.79,0,8.69,3.91,8.69,8.71s-3.9,8.71-8.69,8.71-8.69-3.91-8.69-8.71S19.18,1.29,23.98,1.29M23.98,15.72c3.16,0,5.72-2.57,5.72-5.73s-2.57-5.73-5.72-5.73-5.72,2.57-5.72,5.73,2.57,5.73,5.72,5.73M23.98.54c-5.21,0-9.44,4.23-9.44,9.46s4.23,9.46,9.44,9.46,9.44-4.23,9.44-9.46S29.19.54,23.98.54h0ZM23.98,14.97c-2.75,0-4.97-2.23-4.97-4.98s2.23-4.98,4.97-4.98,4.97,2.23,4.97,4.98-2.23,4.98-4.97,4.98h0Z"/>
  <path class="st3" d="M46.52,31.33c4.79,0,8.69,3.91,8.69,8.71s-3.9,8.71-8.69,8.71-8.69-3.91-8.69-8.71,3.9-8.71,8.69-8.71M46.52,45.75c3.16,0,5.72-2.57,5.72-5.73s-2.57-5.73-5.72-5.73-5.72,2.57-5.72,5.73,2.57,5.73,5.72,5.73M46.52,30.58c-5.21,0-9.44,4.23-9.44,9.46s4.23,9.46,9.44,9.46,9.44-4.23,9.44-9.46-4.23-9.46-9.44-9.46h0ZM46.52,45c-2.75,0-4.97-2.23-4.97-4.98s2.23-4.98,4.97-4.98,4.97,2.23,4.97,4.98-2.23,4.98-4.97,4.98h0Z"/>
  <path class="st0" d="M23.98,32.97l.33,1.66c.14.72.78,1.25,1.52,1.25.39,0,.76-.15,1.05-.41l1.24-1.15-.71,1.54c-.22.48-.19,1.04.1,1.48.29.45.77.72,1.3.72.06,0,.12,0,.19-.01l1.68-.2-1.48.83c-.49.27-.79.79-.79,1.35s.3,1.08.79,1.35l1.48.83-1.68-.2c-.06,0-.13-.01-.19-.01-.53,0-1.02.27-1.3.72-.29.45-.32,1-.1,1.49l.71,1.54-1.24-1.15c-.29-.27-.66-.41-1.05-.41-.74,0-1.38.53-1.52,1.25l-.33,1.66-.33-1.66c-.14-.72-.78-1.25-1.52-1.25-.39,0-.76.15-1.05.41l-1.24,1.15.71-1.54c.22-.48.19-1.04-.1-1.48-.29-.45-.77-.72-1.3-.72-.06,0-.12,0-.19.01l-1.68.2,1.48-.83c.49-.27.79-.79.79-1.35s-.3-1.08-.79-1.35l-1.48-.83,1.68.2c.06,0,.13.01.19.01.53,0,1.02-.27,1.3-.72.29-.45.32-1,.1-1.48l-.71-1.54,1.24,1.15c.29.27.66.41,1.05.41.74,0,1.38-.53,1.52-1.25l.33-1.66M23.98,30.12c-.11,0-.21.07-.24.2l-.83,4.18c-.08.4-.43.65-.79.65-.19,0-.38-.07-.54-.21l-3.12-2.89c-.05-.05-.11-.07-.16-.07-.16,0-.3.17-.22.35l1.79,3.87c.25.54-.15,1.14-.72,1.14-.03,0-.07,0-.1,0l-4.23-.5s-.02,0-.03,0c-.24,0-.34.33-.11.45l3.72,2.08c.55.31.55,1.09,0,1.4l-3.72,2.08c-.22.12-.13.45.11.45.01,0,.02,0,.03,0l4.23-.5s.07,0,.1,0c.57,0,.97.6.72,1.14l-1.79,3.87c-.08.18.06.35.22.35.06,0,.11-.02.16-.07l3.12-2.89c.16-.15.35-.21.54-.21.36,0,.71.24.79.65l.83,4.18c.03.13.13.2.24.2s.21-.07.24-.2l.83-4.18c.08-.4.43-.65.79-.65.19,0,.38.07.54.21l3.12,2.89c.05.05.11.07.16.07.16,0,.3-.17.22-.35l-1.79-3.87c-.25-.54.15-1.14.72-1.14.03,0,.07,0,.1,0l4.23.5s.02,0,.03,0c.24,0,.34-.33.11-.45l-3.72-2.08c-.55-.31-.55-1.09,0-1.4l3.72-2.08c.22-.12.13-.45-.11-.45-.01,0-.02,0-.03,0l-4.23.5s-.07,0-.1,0c-.57,0-.97-.6-.72-1.14l1.79-3.87c.08-.18-.06-.35-.22-.35-.06,0-.11.02-.16.07l-3.12,2.89c-.16.15-.35.21-.54.21-.36,0-.71-.24-.79-.65l-.83-4.18c-.03-.13-.13-.2-.24-.2h0Z"/>
</svg>