<?xml version="1.0" encoding="UTF-8"?>
<svg id="Layer_1" xmlns="http://www.w3.org/2000/svg" version="1.1" viewBox="0 0 24 24">
  <!-- Generator: Adobe Illustrator 30.6.0, SVG Export Plug-In . SVG Version: 2.1.4 Build 109)  -->
  <defs>
    <style>
      .st0 {
        fill: #9fd6e8;
      }
    </style>
  </defs>
  <path class="st0" d="M12,3.29c4.79,0,8.69,3.91,8.69,8.71s-3.9,8.71-8.69,8.71S3.31,16.8,3.31,12,7.21,3.29,12,3.29M12,17.72c3.16,0,5.72-2.57,5.72-5.73s-2.57-5.73-5.72-5.73-5.72,2.57-5.72,5.73,2.57,5.73,5.72,5.73M12,2.54C6.79,2.54,2.56,6.78,2.56,12s4.23,9.46,9.44,9.46,9.44-4.23,9.44-9.46S17.21,2.54,12,2.54h0ZM12,16.97c-2.75,0-4.97-2.23-4.97-4.98s2.23-4.98,4.97-4.98,4.97,2.23,4.97,4.98-2.23,4.98-4.97,4.98h0Z"/>
</svg>