<?xml version="1.0" encoding="UTF-8"?>
<svg id="Layer_2" data-name="Layer 2" xmlns="http://www.w3.org/2000/svg" viewBox="0 0 17.71 19.61">
  <defs>
    <style>
      .cls-1 {
        fill: #ea86ae;
      }
    </style>
  </defs>
  <g id="Layer_1-2" data-name="Layer 1">
    <path class="cls-1" d="M8.86.75c1.85,0,3.71,2.63.67,7.9,1.89-3.27,3.84-4.4,5.27-4.4,3.18,0,3.78,5.55-4.6,5.55,8.38,0,7.78,5.55,4.6,5.55-1.43,0-3.38-1.13-5.27-4.4,3.04,5.27,1.19,7.9-.67,7.9s-3.71-2.63-.67-7.9c-1.89,3.27-3.84,4.4-5.27,4.4-3.18,0-3.78-5.55,4.6-5.55C-.86,9.8-.26,4.25,2.92,4.25c1.43,0,3.38,1.13,5.27,4.4-3.04-5.27-1.19-7.9.67-7.9M8.86,0c-1.01,0-1.94.56-2.49,1.51-.34.59-.69,1.61-.48,3.15-1.23-.96-2.29-1.16-2.97-1.16-1.09,0-2.04.52-2.55,1.4-.51.88-.48,1.97.06,2.91.34.59,1.05,1.4,2.49,1.99-.38.15-.73.33-1.05.54-1.19.76-1.87,1.85-1.87,2.99,0,1.58,1.25,2.78,2.92,2.78.68,0,1.74-.2,2.97-1.16-.21,1.55.14,2.57.48,3.15.55.94,1.48,1.51,2.49,1.51s1.94-.56,2.49-1.51c.34-.59.69-1.61.48-3.15,1.23.96,2.29,1.16,2.97,1.16,1.66,0,2.92-1.19,2.92-2.78,0-1.14-.68-2.23-1.87-2.99-.32-.2-.67-.38-1.05-.54.38-.15.73-.33,1.05-.54,1.19-.76,1.87-1.85,1.87-2.99,0-1.58-1.25-2.78-2.92-2.78-.68,0-1.74.2-2.97,1.16.21-1.55-.14-2.57-.48-3.15-.55-.94-1.48-1.51-2.49-1.51h0Z"/>
  </g>
</svg>