<?xml version="1.0" encoding="UTF-8"?>
<svg id="Layer_1" data-name="Layer 1" xmlns="http://www.w3.org/2000/svg" viewBox="0 0 1024 1024">
  <defs>
    <style>
      .cls-1 {
        fill: #9fd6e8;
      }
    </style>
  </defs>
  <path class="cls-1" d="M512,65.6c245.49,0,445.37,200.39,445.37,446.4s-199.88,446.4-445.37,446.4S66.63,758.01,66.63,512,266.51,65.6,512,65.6M512,804.64c161.95,0,293.16-131.72,293.16-293.67s-131.72-293.67-293.16-293.67S218.84,349.02,218.84,510.98s131.72,293.67,293.16,293.67M512,27.16C244.98,27.16,28.19,243.96,28.19,512s216.79,484.84,483.81,484.84,483.81-216.79,483.81-484.84S779.02,27.16,512,27.16h0ZM512,766.21c-140.94,0-254.72-114.29-254.72-255.23s114.29-255.23,254.72-255.23,254.72,114.29,254.72,255.23-114.29,255.23-254.72,255.23h0Z"/>
</svg>