<?xml version="1.0" encoding="UTF-8"?>
<svg id="Layer_1" data-name="Layer 1" xmlns="http://www.w3.org/2000/svg" viewBox="0 0 1024 1024">
  <defs>
    <style>
      .cls-1 {
        fill: #b9df7d;
      }
    </style>
  </defs>
  <path class="cls-1" d="M512,166.04l16.08,80.89c6.82,35.08,38.01,60.91,74.07,60.91,19,0,37.03-7.31,51.16-19.98l60.42-56.04-34.6,75.04c-10.72,23.39-9.26,50.68,4.87,72.12,14.13,21.93,37.52,35.08,63.35,35.08h9.26l81.86-9.75-72.12,40.44c-23.88,13.16-38.49,38.49-38.49,65.78s14.62,52.63,38.49,65.78l72.12,40.44-81.86-9.75h-9.26c-25.83,0-49.7,13.16-63.35,35.08-14.13,21.93-15.59,48.73-4.87,72.6l34.6,75.04-60.42-56.04c-14.13-13.16-32.16-19.98-51.16-19.98-36.06,0-67.24,25.83-74.07,60.91l-16.08,80.89-16.08-80.89c-6.82-35.08-38.01-60.91-74.07-60.91-19,0-37.03,7.31-51.16,19.98l-60.42,56.04,34.6-75.04c10.72-23.39,9.26-50.68-4.87-72.12-14.13-21.93-37.52-35.08-63.35-35.08h-9.26l-81.86,9.75,72.12-40.44c23.88-13.16,38.49-38.49,38.49-65.78s-14.62-52.63-38.49-65.78l-72.12-40.44,81.86,9.75h9.26c25.83,0,49.7-13.16,63.35-35.08,14.13-21.93,15.59-48.73,4.87-72.12l-34.6-75.04,60.42,56.04c14.13,13.16,32.16,19.98,51.16,19.98,36.06,0,67.24-25.83,74.07-60.91l16.08-80.89M512,27.16c-5.36,0-10.23,3.41-11.69,9.75l-40.44,203.68c-3.9,19.49-20.95,31.67-38.49,31.67-9.26,0-18.52-3.41-26.31-10.23L243.03,121.21s-5.36-3.41-7.8-3.41c-7.8,0-14.62,8.28-10.72,17.05l87.22,188.57c12.18,26.31-7.31,55.55-35.08,55.55h-4.87l-206.12-24.36h-1.46c-11.69,0-16.57,16.08-5.36,21.93l181.27,101.35c26.8,15.11,26.8,53.11,0,68.22l-181.27,101.35c-10.72,5.85-6.33,21.93,5.36,21.93h1.46l206.12-24.36h4.87c27.77,0,47.27,29.24,35.08,55.55l-87.22,188.57c-3.9,8.77,2.92,17.05,10.72,17.05,2.92,0,5.36-.97,7.8-3.41l152.03-140.82c7.8-7.31,17.05-10.23,26.31-10.23,17.54,0,34.6,11.69,38.49,31.67l40.44,203.68c1.46,6.33,6.33,9.75,11.69,9.75s10.23-3.41,11.69-9.75l40.44-203.68c3.9-19.49,20.95-31.67,38.49-31.67,9.26,0,18.52,3.41,26.31,10.23l152.03,140.82s5.36,3.41,7.8,3.41c7.8,0,14.62-8.28,10.72-17.05l-87.22-188.57c-12.18-26.31,7.31-55.55,35.08-55.55h4.87l206.12,24.36h1.46c11.69,0,16.57-16.08,5.36-21.93l-181.27-101.35c-26.8-15.11-26.8-53.11,0-68.22l181.27-101.35c10.72-5.85,6.33-21.93-5.36-21.93h-1.46l-206.12,24.36h-4.87c-27.77,0-47.27-29.24-35.08-55.55l87.22-188.57c3.9-8.77-2.92-17.05-10.72-17.05-2.92,0-5.36.97-7.8,3.41l-152.03,140.82c-7.8,7.31-17.05,10.23-26.31,10.23-17.54,0-34.6-11.69-38.49-31.67l-40.44-203.68c-1.46-6.33-6.33-9.75-11.69-9.75h0Z"/>
</svg>