<?xml version="1.0" encoding="UTF-8"?>
<svg id="Layer_1" data-name="Layer 1" xmlns="http://www.w3.org/2000/svg" viewBox="0 0 1024 1024">
  <defs>
    <style>
      .cls-1 {
        fill: #b7a6e8;
      }
    </style>
  </defs>
  <path class="cls-1" d="M510.91,73.39c7.07,8.7,20.12,31,33.72,82.12l21.75,79.4,50.03-65.26c32.63-42.42,53.3-58.19,63.09-63.63,3.26,10.88,6.53,35.89,0,88.65l-10.33,81.58,71.24-40.79c44.05-25.56,69.07-32.09,82.12-33.72-1.63,11.42-8.16,35.89-33.72,81.03l-40.79,71.24,81.58-10.33c20.12-2.72,38.07-3.81,53.3-3.81,18.49,0,29.91,2.18,35.89,3.81-5.44,9.79-21.21,30.46-64.17,63.63l-65.26,50.03,79.4,21.21c51.66,14.14,73.96,27.19,83.21,34.26-8.7,7.07-31,19.58-81.58,33.72l-78.86,21.75,64.72,50.03c41.88,32.09,57.1,52.75,62.54,62.54-6.53,1.63-17.4,3.81-36.44,3.81-15.23,0-33.17-1.09-52.75-3.81l-81.58-10.33,40.79,71.24c26.1,46.23,32.63,70.7,34.26,82.12-10.88-1.63-35.89-7.61-81.58-33.72l-71.24-40.79,10.33,81.03c6.53,52.21,3.26,77.23,0,88.1-9.79-5.44-31-21.21-63.63-64.17l-50.58-65.81-21.21,79.95c-14.14,53.3-27.74,75.59-34.81,84.84-7.07-9.25-20.12-31-33.72-82.66l-21.21-79.4-50.03,64.72c-32.63,41.88-52.75,57.1-62.54,62.54-3.26-10.88-6.53-36.44,0-89.73l10.33-81.58-71.24,40.79c-44.6,25.56-69.07,32.09-82.12,33.72,1.63-11.42,8.16-36.44,34.26-82.12l40.79-71.24-81.58,10.33c-19.58,2.72-37.53,3.81-52.21,3.81-18.49,0-29.91-2.18-36.44-3.81,5.44-9.79,20.67-29.91,62-62l64.72-50.03-78.86-21.75c-50.58-13.6-72.33-26.65-81.58-33.72,9.25-7.07,31.54-20.12,83.21-34.26l79.4-21.21-65.26-50.03c-42.42-32.63-57.65-53.3-63.63-63.09,6.53-1.63,17.4-3.81,36.44-3.81,15.23,0,33.17,1.09,52.75,3.81l81.58,10.33-40.79-71.24c-26.1-46.23-32.63-70.7-34.26-82.12,10.88,1.63,36.44,7.61,82.66,34.81l71.24,40.79-10.33-81.58c-7.07-53.3-3.26-78.86,0-89.73,9.79,5.44,29.91,20.67,62,61.45l50.03,64.17,21.75-78.31c13.6-49.49,26.1-70.7,33.17-79.4M510.91,27.71c-27.74,0-52.75,42.96-72.33,113.66-39.7-51.12-75.05-80.49-100.61-80.49-3.81,0-7.61.54-10.88,2.18-26.1,10.88-32.63,61.45-22.84,136.5-45.14-26.1-82.66-40.24-108.22-40.24-11.42,0-20.67,2.72-26.65,9.25-19.58,19.58-6.53,69.07,31,134.33-21.21-2.72-40.79-4.35-58.19-4.35-42.42,0-70.16,8.7-77.77,27.19-10.88,26.1,20.67,66.35,80.49,112.58-73.42,19.58-117.47,45.14-117.47,73.42s43.51,53.3,115.84,72.88c-58.74,45.68-89.19,85.93-78.86,111.49,7.61,18.49,35.35,27.19,77.77,27.19,16.86,0,36.44-1.63,57.65-4.35-37.53,65.81-51.12,115.29-31,134.87,5.98,5.98,15.23,9.25,26.65,9.25,25.56,0,62.54-14.14,107.68-40.24-9.79,75.05-3.26,125.63,22.84,136.5,3.26,1.63,7.07,2.18,10.88,2.18,25.56,0,61.45-29.91,101.15-81.58,19.58,72.88,45.14,116.93,73.42,116.93s54.38-45.14,73.96-119.65c40.24,52.75,76.68,83.21,102.79,83.21,3.81,0,7.61,0,10.88-2.18,25.56-10.88,32.63-60.91,22.84-135.42,44.6,25.56,81.58,39.7,106.59,39.7,11.42,0,20.67-2.72,26.65-9.25,19.58-19.58,6.53-69.07-31-134.33,21.21,2.72,40.79,4.35,58.19,4.35,42.42,0,70.16-8.7,77.77-27.19,10.88-25.56-20.12-66.35-79.4-112.03,72.33-19.58,115.84-45.14,115.84-72.88s-44.6-53.84-118.01-73.42c60.37-46.23,91.91-87.01,81.03-113.12-7.61-18.49-35.35-27.19-77.77-27.19-17.4,0-36.98,1.63-58.19,4.35,36.98-65.26,50.03-114.21,30.46-133.79-5.98-5.98-15.23-9.25-26.65-9.25-25.56,0-62.54,14.14-107.14,39.7,9.25-74.51,2.72-124.54-22.84-135.42-3.26-1.63-7.07-2.18-10.88-2.18-25.56,0-61.45,30.46-101.7,82.66-19.58-72.33-45.14-116.38-73.42-116.38h0l-.54.54Z"/>
</svg>