<?xml version="1.0" encoding="UTF-8"?>
<svg id="Layer_1" data-name="Layer 1" xmlns="http://www.w3.org/2000/svg" viewBox="0 0 1024 1024">
  <defs>
    <style>
      .cls-1 {
        fill: #f2a58c;
      }
    </style>
  </defs>
  <path class="cls-1" d="M512,63.58c53.9,0,125.28,20.88,149.55,80.12,17.97,43.7,22.34,142.76-149.55,317.07-171.89-174.32-167.52-273.37-149.55-317.07,24.28-59.24,95.66-80.12,149.55-80.12M835.39,354.43c85.94,0,125.28,82.06,125.28,158.29s-39.33,158.29-125.28,158.29c-51.47,0-139.84-27.68-271.92-158.29,132.07-130.62,220.93-158.29,271.92-158.29M188.13,354.43c51.47,0,139.84,27.68,271.92,158.29-132.07,130.62-220.93,158.29-271.92,158.29-85.94,0-125.28-82.06-125.28-158.29s39.33-158.29,125.28-158.29M512,563.71c171.89,174.32,167.52,273.37,149.55,317.07-24.28,59.24-95.66,80.12-149.55,80.12s-125.28-20.88-149.55-80.12c-17.97-43.7-22.34-142.76,149.55-317.07M512,27.16c-165.09,0-330.18,154.9-19.91,465.17-127.22-127.22-228.7-174.8-303.96-174.8-215.59,0-215.59,388.94,0,388.94,75.26,0,176.26-47.1,303.96-174.8-310.28,310.28-145.18,465.17,19.91,465.17s330.18-154.9,19.91-465.17c127.22,127.22,228.7,174.8,303.96,174.8,215.59,0,215.59-388.94,0-388.94-75.26,0-176.26,47.1-303.96,174.8C842.18,182.06,677.09,27.16,512,27.16h0Z"/>
</svg>