<?xml version="1.0" encoding="UTF-8"?>
<svg id="Layer_1" data-name="Layer 1" xmlns="http://www.w3.org/2000/svg" viewBox="0 0 1024 1024">
  <defs>
    <style>
      .cls-1 {
        fill: #edeef0;
      }
    </style>
  </defs>
  <path class="cls-1" d="M538.2,955.38c-31.36,0-57.1-10.98-77.25-32.92-20.15-21.94-30.23-57.98-30.23-108.16v-502.5c0-10.75-5.37-16.12-16.12-16.12h-38.96c-14.34,0-21.5-5.37-21.5-16.12,0-7.16,4.03-13.44,12.09-18.81,29.56-20.6,53.28-42.76,71.21-66.51,17.91-23.72,33.59-56.2,47.03-97.41,6.26-18.81,13.88-28.21,22.84-28.21,9.85,0,14.78,7.18,14.78,21.5v149.14c0,12.55,6.26,18.81,18.81,18.81h87.33c14.32,0,21.5,6.28,21.5,18.81s-7.18,18.81-21.5,18.81h-87.33c-12.55,0-18.81,6.28-18.81,18.81v501.15c0,19.71,3.13,35.16,9.4,46.35,6.26,11.21,17.91,16.79,34.93,16.79,18.81,0,34.26-9.4,46.35-28.21,12.09-18.81,19.92-49.25,23.51-91.36,1.78-12.53,7.6-18.81,17.47-18.81,10.75,0,16.12,6.72,16.12,20.15-2.69,68.98-16.79,118.7-42.32,149.14-25.53,30.46-55.32,45.68-89.35,45.68Z"/>
</svg>